<?xml version="1.0" standalone="no"?><!DOCTYPE svg PUBLIC "-//W3C//DTD SVG 1.1//EN" "http://www.w3.org/Graphics/SVG/1.1/DTD/svg11.dtd"><svg t="1752747327420" class="icon" viewBox="0 0 1024 1024" version="1.1" xmlns="http://www.w3.org/2000/svg" p-id="23667" xmlns:xlink="http://www.w3.org/1999/xlink" width="200" height="200"><path d="M448.2 185.5h110.1c14.5 0 27.3-12.9 27.3-27.3 0-14.5-12.9-27.3-27.3-27.3H448.2c-14.5 0-27.3 12.9-27.3 27.3s11.2 27.3 27.3 27.3z m0 0" fill="#aad6ad" p-id="23668"></path><path d="M558.4 189.5H448.2c-17.6 0-31.3-13.8-31.3-31.3 0-16.7 14.6-31.3 31.3-31.3h110.1c16.7 0 31.3 14.6 31.3 31.3 0.1 16.6-14.6 31.3-31.2 31.3z m-110.2-54.7c-12.2 0-23.3 11.1-23.3 23.3 0 11.5 8.7 23.3 23.3 23.3h110.1c12.2 0 23.3-11.1 23.3-23.3s-11.1-23.3-23.3-23.3H448.2zM464.9 677.1c8.2 0 16.4-3.1 22.7-9.4L729.3 426c12.5-12.5 12.5-32.8 0-45.4-12.5-12.5-32.9-12.5-45.4 0l-219 219-98.2-98.2c-12.5-12.5-32.8-12.5-45.4 0-12.5 12.5-12.5 32.8 0 45.4l120.8 120.8c6.4 6.4 14.6 9.5 22.8 9.5z m0 0" fill="#aad6ad" p-id="23669"></path><path d="M464.9 678.1c-8.8 0-17.1-3.4-23.4-9.7L320.7 547.6c-6.2-6.2-9.7-14.6-9.7-23.4s3.4-17.1 9.7-23.4c6.2-6.3 14.6-9.7 23.4-9.7 8.8 0 17.1 3.4 23.4 9.7l97.4 97.4L683.2 380c6.2-6.2 14.6-9.7 23.4-9.7 8.8 0 17.2 3.4 23.4 9.7 12.9 12.9 12.9 33.9 0 46.8L488.3 668.4c-6.2 6.3-14.6 9.7-23.4 9.7z m-120.8-185c-8.3 0-16.1 3.2-22 9.1-5.9 5.9-9.1 13.7-9.1 22s3.2 16.1 9.1 22L442.9 667c5.9 5.9 13.7 9.1 22 9.1s16.1-3.2 22-9.1l241.7-241.7c12.1-12.1 12.1-31.8 0-44-5.9-5.9-13.7-9.1-22-9.1s-16.1 3.2-22 9.1L464.9 601.1 366 502.2c-5.8-5.9-13.6-9.1-21.9-9.1z" fill="#aad6ad" p-id="23670"></path><path d="M797.6 895.7H219.7c-53.3 0-96.7-43.4-96.7-96.7V224.5c0-53.3 43.4-96.7 96.7-96.7h133.1v60H219.7c-20.2 0-36.7 16.5-36.7 36.7V799c0 20.2 16.5 36.7 36.7 36.7h577.9c20.2 0 36.7-16.5 36.7-36.7V224.5c0-20.2-16.5-36.7-36.7-36.7H652.9v-60h144.7c53.3 0 96.7 43.4 96.7 96.7V799c0 53.4-43.4 96.7-96.7 96.7z" fill="#aad6ad" p-id="23671"></path><path d="M354.6 187.8H217.5c-16.6 0-30-13.4-30-30s13.4-30 30-30h137.1c16.6 0 30 13.4 30 30s-13.5 30-30 30z" fill="#aad6ad" p-id="23672"></path><path d="M795.7 187.8H647.6c-16.6 0-30-13.4-30-30s13.4-30 30-30h148.2c16.6 0 30 13.4 30 30s-13.5 30-30.1 30z" fill="#aad6ad" p-id="23673"></path></svg>