<?xml version="1.0" standalone="no"?><!DOCTYPE svg PUBLIC "-//W3C//DTD SVG 1.1//EN" "http://www.w3.org/Graphics/SVG/1.1/DTD/svg11.dtd"><svg t="1752740019856" class="icon" viewBox="0 0 1024 1024" version="1.1" xmlns="http://www.w3.org/2000/svg" p-id="17768" xmlns:xlink="http://www.w3.org/1999/xlink" width="200" height="200"><path d="M910.4 194.4L381.6 723.2c-21.6 22.4-57.6 23.2-80.8 1.6-22.4-21.6-23.2-57.6-1.6-80.8l1.6-1.6 528.8-528.8H682.4c-31.2 0-56.8-25.6-56.8-56.8S651.2 0 682.4 0h284.8c31.2 0 56.8 25.6 56.8 56.8v284.8c0 31.2-25.6 56.8-56.8 56.8s-56.8-25.6-56.8-56.8V194.4z m0 374.4c0-31.2 25.6-56.8 56.8-56.8s56.8 25.6 56.8 56.8v341.6c0 62.4-51.2 113.6-113.6 113.6H113.6C51.2 1024 0 972.8 0 910.4V113.6C0 51.2 51.2 0 113.6 0h341.6C486.4 0 512 25.6 512 56.8s-25.6 56.8-56.8 56.8H113.6v796.8h796.8V568.8z" fill="#aad6ad" p-id="17769"></path></svg>